<svg width="264" height="32" viewBox="0 0 264 32" fill="none" xmlns="http://www.w3.org/2000/svg">
<g filter="url(#filter0_d_1_2)">
<path d="M26.5758 29.16C24.0424 29.16 21.8158 28.68 19.8958 27.72C17.9758 26.7333 16.4691 25.2667 15.3758 23.32C14.3091 21.3733 13.7758 18.96 13.7758 16.08C13.7758 12.1867 14.8158 9.10667 16.8958 6.84C18.9758 4.54667 22.0691 3.4 26.1758 3.4C27.6158 3.4 29.0424 3.56 30.4558 3.88C31.8958 4.2 33.2291 4.72 34.4558 5.44L32.6558 10.48C32.0158 10.08 31.2158 9.77333 30.2558 9.56C29.2958 9.32 28.3758 9.2 27.4958 9.2C25.4158 9.2 23.8024 9.84 22.6558 11.12C21.5358 12.3733 20.9758 14.0667 20.9758 16.2C20.9758 18.5467 21.6158 20.3333 22.8958 21.56C24.2024 22.76 25.8824 23.36 27.9358 23.36C29.0824 23.36 30.1624 23.1867 31.1758 22.84C32.1891 22.4933 33.0691 22.0667 33.8158 21.56L35.8958 26.04C34.9091 26.7867 33.6824 27.4933 32.2158 28.16C30.7491 28.8267 28.8691 29.16 26.5758 29.16ZM51.227 29.16C48.5604 29.16 46.2537 28.6533 44.307 27.64C42.387 26.6 40.907 25.12 39.867 23.2C38.827 21.28 38.307 18.9867 38.307 16.32C38.307 13.6533 38.827 11.36 39.867 9.44C40.907 7.49333 42.387 6 44.307 4.96C46.2537 3.92 48.5604 3.4 51.227 3.4C53.8937 3.4 56.1604 3.92 58.027 4.96C59.9204 6 61.3604 7.49333 62.347 9.44C63.3337 11.36 63.827 13.6533 63.827 16.32C63.827 20.32 62.7204 23.4667 60.507 25.76C58.3204 28.0267 55.227 29.16 51.227 29.16ZM51.227 23.4C53.0404 23.4 54.4137 22.8133 55.347 21.64C56.307 20.44 56.787 18.68 56.787 16.36C56.787 14.04 56.307 12.2667 55.347 11.04C54.4137 9.78667 53.0404 9.16 51.227 9.16C49.4137 9.16 47.9737 9.78667 46.907 11.04C45.867 12.2667 45.347 14.04 45.347 16.36C45.347 18.68 45.867 20.44 46.907 21.64C47.9737 22.8133 49.4137 23.4 51.227 23.4ZM67.8086 29V3.56H75.3686L83.8086 19.24V3.56H90.6086V29H82.8486L74.6086 13.92V29H67.8086ZM107.005 29.16C104.472 29.16 102.245 28.68 100.325 27.72C98.4055 26.7333 96.8988 25.2667 95.8055 23.32C94.7388 21.3733 94.2055 18.96 94.2055 16.08C94.2055 12.1867 95.2455 9.10667 97.3255 6.84C99.4055 4.54667 102.499 3.4 106.605 3.4C108.045 3.4 109.472 3.56 110.885 3.88C112.325 4.2 113.659 4.72 114.885 5.44L113.085 10.48C112.445 10.08 111.645 9.77333 110.685 9.56C109.725 9.32 108.805 9.2 107.925 9.2C105.845 9.2 104.232 9.84 103.085 11.12C101.965 12.3733 101.405 14.0667 101.405 16.2C101.405 18.5467 102.045 20.3333 103.325 21.56C104.632 22.76 106.312 23.36 108.365 23.36C109.512 23.36 110.592 23.1867 111.605 22.84C112.619 22.4933 113.499 22.0667 114.245 21.56L116.325 26.04C115.339 26.7867 114.112 27.4933 112.645 28.16C111.179 28.8267 109.299 29.16 107.005 29.16ZM119.918 29V3.56H126.718V23.4H136.438V29H119.918ZM149.034 29.24C145.487 29.24 142.834 28.4133 141.074 26.76C139.314 25.1067 138.434 22.7333 138.434 19.64V3.56H145.234V19.52C145.234 20.88 145.567 21.9067 146.234 22.6C146.927 23.2667 147.887 23.6 149.114 23.6C151.594 23.6 152.834 22.24 152.834 19.52V3.56H159.634V19.64C159.634 22.7333 158.754 25.1067 156.994 26.76C155.26 28.4133 152.607 29.24 149.034 29.24ZM173.469 29.36C171.442 29.36 169.496 29.0667 167.629 28.48C165.789 27.8667 164.322 27.0933 163.229 26.16L165.429 21.24C165.989 21.6667 166.682 22.0533 167.509 22.4C168.336 22.7467 169.229 23.0267 170.189 23.24C171.149 23.4533 172.069 23.56 172.949 23.56C174.229 23.56 175.109 23.36 175.589 22.96C176.069 22.56 176.309 22.0933 176.309 21.56C176.309 21.0267 176.109 20.6 175.709 20.28C175.336 19.96 174.722 19.64 173.869 19.32L170.509 18.08C168.429 17.3067 166.749 16.3733 165.469 15.28C164.216 14.16 163.589 12.6267 163.589 10.68C163.589 8.41333 164.469 6.64 166.229 5.36C168.016 4.05333 170.549 3.4 173.829 3.4C175.962 3.4 177.802 3.66667 179.349 4.2C180.922 4.70667 182.202 5.38667 183.189 6.24L181.149 10.92C180.589 10.6 179.896 10.3067 179.069 10.04C178.242 9.77333 177.376 9.57333 176.469 9.44C175.589 9.28 174.749 9.2 173.949 9.2C172.856 9.2 172.056 9.34667 171.549 9.64C171.069 9.93333 170.829 10.32 170.829 10.8C170.829 11.2 171.016 11.5733 171.389 11.92C171.762 12.24 172.389 12.56 173.269 12.88L176.189 13.96C178.882 14.9467 180.776 16 181.869 17.12C182.989 18.2133 183.549 19.6267 183.549 21.36C183.549 23.68 182.682 25.6 180.949 27.12C179.242 28.6133 176.749 29.36 173.469 29.36ZM187.145 29V3.56H193.945V29H187.145ZM210.446 29.16C207.779 29.16 205.472 28.6533 203.526 27.64C201.606 26.6 200.126 25.12 199.086 23.2C198.046 21.28 197.526 18.9867 197.526 16.32C197.526 13.6533 198.046 11.36 199.086 9.44C200.126 7.49333 201.606 6 203.526 4.96C205.472 3.92 207.779 3.4 210.446 3.4C213.112 3.4 215.379 3.92 217.246 4.96C219.139 6 220.579 7.49333 221.566 9.44C222.552 11.36 223.046 13.6533 223.046 16.32C223.046 20.32 221.939 23.4667 219.726 25.76C217.539 28.0267 214.446 29.16 210.446 29.16ZM210.446 23.4C212.259 23.4 213.632 22.8133 214.566 21.64C215.526 20.44 216.006 18.68 216.006 16.36C216.006 14.04 215.526 12.2667 214.566 11.04C213.632 9.78667 212.259 9.16 210.446 9.16C208.632 9.16 207.192 9.78667 206.126 11.04C205.086 12.2667 204.566 14.04 204.566 16.36C204.566 18.68 205.086 20.44 206.126 21.64C207.192 22.8133 208.632 23.4 210.446 23.4ZM227.027 29V3.56H234.587L243.027 19.24V3.56H249.827V29H242.067L233.827 13.92V29H227.027Z" fill="white"/>
</g>
<defs>
<filter id="filter0_d_1_2" x="9.77578" y="3.4" width="244.052" height="33.96" filterUnits="userSpaceOnUse" color-interpolation-filters="sRGB">
<feFlood flood-opacity="0" result="BackgroundImageFix"/>
<feColorMatrix in="SourceAlpha" type="matrix" values="0 0 0 0 0 0 0 0 0 0 0 0 0 0 0 0 0 0 127 0" result="hardAlpha"/>
<feOffset dy="4"/>
<feGaussianBlur stdDeviation="2"/>
<feComposite in2="hardAlpha" operator="out"/>
<feColorMatrix type="matrix" values="0 0 0 0 0 0 0 0 0 0 0 0 0 0 0 0 0 0 0.25 0"/>
<feBlend mode="normal" in2="BackgroundImageFix" result="effect1_dropShadow_1_2"/>
<feBlend mode="normal" in="SourceGraphic" in2="effect1_dropShadow_1_2" result="shape"/>
</filter>
</defs>
</svg>
