<?xml version="1.0" encoding="UTF-8"?>
<svg version="1.1" xmlns="http://www.w3.org/2000/svg" width="500" height="500">
<path d="M0 0 C2.5625 1.125 2.5625 1.125 5 3 C6.52837227 7.77146365 6.17480935 12.96971699 6.20532227 17.9309082 C6.21522186 18.92650253 6.22512146 19.92209686 6.23532104 20.94786072 C6.26685843 24.23214353 6.29166283 27.51644081 6.31640625 30.80078125 C6.33698247 33.08050407 6.35797912 35.36022312 6.37937927 37.63993835 C6.43453087 43.63547723 6.48397065 49.63105014 6.53222656 55.62664795 C6.58249205 61.7465721 6.63815176 67.86644692 6.69335938 73.98632812 C6.80085642 85.99084326 6.90232017 97.99540125 7 110 C7.52432617 109.75765625 8.04865234 109.5153125 8.58886719 109.265625 C10.97240308 108.16926174 13.36106574 107.08454684 15.75 106 C16.575 105.6184375 17.4 105.236875 18.25 104.84375 C19.04921875 104.4828125 19.8484375 104.121875 20.671875 103.75 C21.77160645 103.24726563 21.77160645 103.24726563 22.89355469 102.734375 C25 102 25 102 29 102 C28.85211336 106.88025898 26.31049616 109.06759992 22.984375 112.25390625 C21.58362809 113.48645324 20.14134456 114.67254972 18.67247009 115.82305908 C11.67605518 121.52219934 7.14657759 126.41670707 6.17623901 135.59875488 C5.745871 142.65231335 5.83020123 149.7027725 5.90234375 156.765625 C5.89668513 159.37165445 5.88706697 161.97767803 5.87367249 164.5836792 C5.84877718 170.71416511 5.86918746 176.84360306 5.90644604 182.97399211 C5.94666198 189.96093658 5.93550447 196.94751559 5.92032993 203.93452501 C5.89028789 218.28996582 5.92379103 232.64474923 6 247 C6.78375 247.28875 7.5675 247.5775 8.375 247.875 C11 249 11 249 13 251 C12.76903442 255.38834604 11.11159909 257.08287585 8 260 C6.95012521 263.14962436 6.84406158 265.44787416 6.79467773 268.7565918 C6.77473251 269.93758957 6.75478729 271.11858734 6.73423767 272.33537292 C6.71752518 273.61044205 6.70081268 274.88551117 6.68359375 276.19921875 C6.6524221 278.15720146 6.6524221 278.15720146 6.62062073 280.15473938 C6.56547727 283.62182353 6.51603405 287.08896646 6.46777344 290.55615234 C6.4175019 294.09543069 6.36184537 297.63462389 6.30664062 301.17382812 C6.19915362 308.11581156 6.09768773 315.05787194 6 322 C10.25182569 320.31291433 13.59130336 318.90005927 16.90234375 315.671875 C17.89717773 314.71861328 17.89717773 314.71861328 18.91210938 313.74609375 C19.58048828 313.08738281 20.24886719 312.42867188 20.9375 311.75 C22.2786472 310.45177992 23.62109394 309.154901 24.96484375 307.859375 C25.62871094 307.21677734 26.29257812 306.57417969 26.9765625 305.91210938 C28.98218982 304.01683028 31.03496032 302.19662051 33.12109375 300.390625 C36.59223974 297.3849291 39.89210591 294.25903609 43.125 291 C43.85396484 290.27683594 43.85396484 290.27683594 44.59765625 289.5390625 C45.55645207 288.57772346 46.50181893 287.60273876 47.4309845 286.61273193 C49 285 49 285 50.57402039 283.68218994 C54.59346878 279.92701139 55.44467864 276.83648029 55.7253418 271.37792969 C55.74599855 268.72153206 55.73585462 266.07694817 55.69921875 263.421875 C55.7028565 262.00415977 55.70956439 260.58644941 55.7191925 259.16876221 C55.73818844 255.45425898 55.72428773 251.74069552 55.70068359 248.02624512 C55.66617452 242.06799772 55.67206921 236.10997588 55.6968174 230.15171051 C55.69918833 228.07353446 55.68139177 225.99621923 55.6615448 223.91815186 C55.66218681 222.03039032 55.66218681 222.03039032 55.6628418 220.10449219 C55.65584763 218.99531433 55.64885345 217.88613647 55.64164734 216.74334717 C56 214 56 214 57.33357239 212.18096924 C59 211 59 211 62 210 C63.32 210.66 64.64 211.32 66 212 C66.33 229.82 66.66 247.64 67 266 C73.94541113 258.33789267 73.94541113 258.33789267 80.5 250.4375 C83.39633966 246.84866726 86.38551782 243.53151781 89.6875 240.3125 C92.90304024 237.17430952 95.59778292 234.00563916 98.2109375 230.36328125 C102.08593633 225.24456009 106.39505482 220.46754087 110.60498047 215.62402344 C111.8217706 214.20748722 113.00924732 212.76587583 114.19140625 211.3203125 C114.78824219 210.59585938 115.38507813 209.87140625 116 209.125 C116.495 208.50882813 116.99 207.89265625 117.5 207.2578125 C119 206 119 206 123 206 C125.22171697 214.28094508 119.70537182 221.78258703 116.0625 229.0625 C115.58304932 230.0213208 115.10359863 230.9801416 114.60961914 231.96801758 C110.70604092 239.71513841 106.60957648 247.34468358 102.41894531 254.93969727 C99.56140445 260.12026494 96.77373149 265.32714254 94.06054688 270.5847168 C87.54113947 283.20140252 79.90852882 294.83855272 71.75 306.453125 C66.65381127 313.86989967 67.87598824 324.36170349 67.6875 333.125 C67.64290649 334.22630249 67.64290649 334.22630249 67.59741211 335.34985352 C67.56281509 338.4756031 67.63135656 340.50152583 69.51953125 343.0546875 C77.15427849 345.96430771 87.2963863 341.15802455 94.875 339.0625 C103.20047845 336.77049436 111.48999088 334.51453568 120 333 C118.20462549 357.98868189 112.54409284 397.45590716 94 416 C91.03533048 417.51848927 89.34238213 418 86 418 C85.77570313 418.76570313 85.55140625 419.53140625 85.3203125 420.3203125 C83.51713201 425.34574452 81.20093513 430.07328509 78.875 434.875 C78.38435059 435.89279541 77.89370117 436.91059082 77.38818359 437.95922852 C75.93079979 440.97544753 74.46680683 443.98835385 73 447 C72.59845703 447.8264502 72.19691406 448.65290039 71.78320312 449.50439453 C60.70121987 472.24777933 60.70121987 472.24777933 54 476 C50.24417666 476.78857602 46.53159826 476.77671184 42.70336914 476.79272461 C40.94758718 476.8283861 40.94758718 476.8283861 39.15633488 476.86476803 C35.82831059 476.92445511 32.50170195 476.96012059 29.17332315 476.98319387 C26.94652618 477.00041351 24.71993375 477.02534324 22.49323654 477.05247879 C11.2059874 477.18882047 -0.08113485 477.25418626 -11.36905789 477.30332303 C-16.29113406 477.32564538 -21.21318382 477.35282606 -26.13523865 477.37937927 C-34.39947295 477.42330553 -42.66371749 477.46412841 -50.92797852 477.50268555 C-62.46232095 477.55650741 -73.99662712 477.61626013 -85.53093445 477.67708123 C-93.65110904 477.71966776 -101.77129113 477.76079567 -109.89147449 477.8016727 C-111.82453771 477.81140998 -113.75760075 477.82118588 -115.69066358 477.83100247 C-135.10967272 477.92944235 -154.5284612 478.01664241 -173.94775391 478.01855469 C-174.64361292 478.018736 -175.33947193 478.01891732 -176.05641758 478.01910412 C-186.26290043 478.02029453 -196.4674656 477.99366404 -206.67114258 477.73754883 C-208.15049559 477.70297268 -209.63002357 477.67542265 -211.10961914 477.65356445 C-213.3509635 477.62022449 -215.59116715 477.56826817 -217.83203125 477.51171875 C-219.09764893 477.48553467 -220.3632666 477.45935059 -221.66723633 477.43237305 C-226.58193992 476.79476847 -229.07929358 475.01826472 -232.359375 471.390625 C-240.40323007 460.82320756 -247.17924923 449.90761186 -252.9375 437.9375 C-260.68622834 421.92294304 -271.92450842 408.81691888 -286 398 C-286.89976562 397.30777344 -287.79953125 396.61554688 -288.7265625 395.90234375 C-294.40935565 391.65253158 -300.26181264 387.98128536 -306.46875 384.54296875 C-308.71878072 383.17142225 -310.37893358 382.06415791 -312 380 C-312.25265405 376.90498792 -312.39935013 374.79870027 -311 372 C-307.45583043 370.50880335 -305.06517193 371.36997269 -301.52734375 372.58203125 C-300.46193359 372.93716797 -299.39652344 373.29230469 -298.29882812 373.65820312 C-297.18958984 374.03912109 -296.08035156 374.42003906 -294.9375 374.8125 C-287.00165807 377.52080103 -279.3065349 379.76436007 -271 381 C-272.74095808 377.90496341 -274.66612059 375.14179225 -276.875 372.375 C-280.69738647 367.27528338 -285.17210135 361.1635287 -284.8984375 354.54296875 C-284.38685551 352.30193423 -283.74510434 350.17356405 -283 348 C-281.9434891 344.36852515 -281.9434891 344.36852515 -282 341 C-285.81271949 336.57305065 -290.47538444 333.19070568 -295.125 329.6875 C-295.88200195 329.11209473 -296.63900391 328.53668945 -297.41894531 327.94384766 C-301.48796902 324.86043962 -305.59167101 321.83734941 -309.75 318.875 C-315.0044496 315.09338854 -319.89325059 310.94421887 -324.80078125 306.73046875 C-327.72065752 304.22508319 -330.69503694 301.7934504 -333.6875 299.375 C-338.19872668 295.70797948 -342.52904744 291.87939296 -346.80859375 287.9453125 C-348.94057468 285.97185077 -348.94057468 285.97185077 -351.26953125 284.44140625 C-351.84058594 283.96574219 -352.41164063 283.49007813 -353 283 C-353.25 279.8125 -353.25 279.8125 -353 277 C-344.81214953 277 -340.99019899 280.78350182 -335 286 C-332.53676937 288.06128677 -330.05211337 290.09569228 -327.5625 292.125 C-326.88840088 292.67486572 -326.21430176 293.22473145 -325.51977539 293.79125977 C-313.28291977 303.69850183 -300.5130852 312.90239804 -287.31835938 321.48730469 C-284.51305834 323.31772225 -281.71774278 325.16301915 -278.921875 327.0078125 C-256.50178048 341.77439492 -233.68399744 355.36295543 -210 368 C-210.33 370.31 -210.66 372.62 -211 375 C-215.04958321 376.34986107 -217.15710078 374.81185933 -220.7734375 373.01953125 C-221.4452858 372.69529175 -222.11713409 372.37105225 -222.80934143 372.0369873 C-225.00342358 370.97310201 -227.18938669 369.89366444 -229.375 368.8125 C-230.87963132 368.07640098 -232.38427002 367.34031706 -233.88891602 366.60424805 C-244.01085225 361.62230471 -253.89038709 356.31748821 -263.58984375 350.55078125 C-268.26922295 347.78187376 -273.11037854 345.3729515 -278 343 C-275.89437013 350.12290223 -272.88534764 356.21810957 -269.140625 362.60546875 C-265.43922221 369.23612739 -264.75702567 375.46779586 -265 383 C-260.5000197 384.08596583 -256.02639359 384.25850366 -251.42114258 384.41723633 C-250.56840759 384.44997147 -249.71567261 384.4827066 -248.83709717 384.51643372 C-246.98964492 384.58724731 -245.14213079 384.65646077 -243.2945652 384.7242527 C-239.3560452 384.87062615 -235.41813059 385.03093713 -231.48012066 385.19035625 C-224.15537877 385.48663207 -216.83050365 385.77698077 -209.50463867 386.04418945 C-204.40181717 386.2308497 -199.29995601 386.43510833 -194.19827843 386.65070152 C-192.26141009 386.72928718 -190.32426931 386.80144751 -188.38691139 386.86686134 C-177.23998891 387.24627781 -167.97994026 387.71685484 -158.25 393.6875 C-155.52603427 395.27648001 -153.10950289 395.6384299 -150 396 C-150.34682928 394.57617455 -150.72902442 393.16094748 -151.125 391.75 C-151.33382812 390.96109375 -151.54265625 390.1721875 -151.7578125 389.359375 C-153.516211 386.01952376 -155.76257859 384.89515109 -159 383 C-162.20892451 381.98067525 -162.20892451 381.98067525 -165.60546875 381.40234375 C-167.45108398 381.03592773 -167.45108398 381.03592773 -169.33398438 380.66210938 C-170.60564453 380.42298828 -171.87730469 380.18386719 -173.1875 379.9375 C-175.72466091 379.45708329 -178.25995256 378.96665515 -180.79296875 378.46484375 C-181.9121167 378.254646 -183.03126465 378.04444824 -184.18432617 377.82788086 C-187.06929885 376.97962435 -188.21339021 376.36560716 -190 374 C-190.9140625 371.765625 -190.9140625 371.765625 -191.625 369.25 C-191.86476562 368.43015625 -192.10453125 367.6103125 -192.3515625 366.765625 C-197.02437682 346.83579045 -193.52639952 327.36810034 -183 310 C-180.93033266 306.96477655 -178.70320781 304.07347038 -176.37109375 301.234375 C-174.8055282 299.14993495 -174.8055282 299.14993495 -175.0859375 296.984375 C-176.19864037 294.56876363 -177.58411896 292.6236835 -179.1875 290.5 C-192.43750515 271.87396817 -196.14596359 250.07937411 -192.375 227.625 C-188.86866116 212.84828632 -181.53611618 200.4998486 -171.32861328 189.45214844 C-170.08356858 188.09133883 -168.8817713 186.69131414 -167.68359375 185.2890625 C-163.02628547 179.87358776 -158.0365116 175.37291921 -152.3828125 171.0078125 C-146.91855938 166.40350741 -145.79305682 161.90648085 -145 155 C-144.78073712 149.9541605 -144.80988002 144.9243029 -144.875 139.875 C-144.88505718 138.52344419 -144.89417816 137.17188107 -144.90234375 135.8203125 C-144.92572681 132.54668442 -144.95849939 129.27344006 -145 126 C-146.69769531 126.01740234 -146.69769531 126.01740234 -148.4296875 126.03515625 C-149.91145669 126.04453454 -151.39322765 126.0536347 -152.875 126.0625 C-153.62136719 126.07087891 -154.36773437 126.07925781 -155.13671875 126.08789062 C-160.7734375 126.11328125 -160.7734375 126.11328125 -163 125 C-163 123.35 -163 121.7 -163 120 C-159.47546112 117.85046641 -156.39325932 117.65227681 -152.3125 117.4375 C-148.33729387 117.56917186 -148.33729387 117.56917186 -145 116 C-144.91368126 114.65732587 -144.89293527 113.31025678 -144.90234375 111.96484375 C-144.90556641 111.15595703 -144.90878906 110.34707031 -144.91210938 109.51367188 C-144.92048828 108.66353516 -144.92886719 107.81339844 -144.9375 106.9375 C-144.94426758 105.65649414 -144.94426758 105.65649414 -144.95117188 104.34960938 C-144.96299627 102.23304337 -144.98093231 100.11651315 -145 98 C-150.91474101 99.14478858 -156.19678868 100.73292915 -161.73828125 103.09765625 C-165.99877011 104.79743678 -169.58869262 105.13620294 -174.1875 105.125 C-175.78658203 105.12886719 -175.78658203 105.12886719 -177.41796875 105.1328125 C-180 105 -180 105 -181 104 C-181.06063225 100.50227701 -181.02056385 97.01856974 -180.9609375 93.52148438 C-180.91617023 89.22009581 -181.13459759 85.23911963 -182 81 C-181.03320312 80.84144531 -180.06640625 80.68289062 -179.0703125 80.51953125 C-169.13609548 78.78261008 -161.34894658 75.95658925 -152.9375 70.25 C-148.80567593 67.55459739 -144.860705 67.12376795 -140 67 C-139.92652344 66.07767578 -139.92652344 66.07767578 -139.8515625 65.13671875 C-139.77679688 64.32847656 -139.70203125 63.52023438 -139.625 62.6875 C-139.55539063 61.88699219 -139.48578125 61.08648437 -139.4140625 60.26171875 C-139 58 -139 58 -137 55 C-136.01 55.33 -135.02 55.66 -134 56 C-134 76.46 -134 96.92 -134 118 C-130.04 118 -126.08 118 -122 118 C-120.68 118.99 -119.36 119.98 -118 121 C-118 122.32 -118 123.64 -118 125 C-119.33146515 125.20033619 -120.66537853 125.38440017 -122 125.5625 C-123.11375 125.71912109 -123.11375 125.71912109 -124.25 125.87890625 C-127.93404716 126.04112992 -131.34978059 125.52201231 -135 125 C-134.88909862 129.31298184 -134.75871566 133.62516994 -134.625 137.9375 C-134.57859375 139.75604492 -134.57859375 139.75604492 -134.53125 141.61132812 C-134.3124075 148.34073509 -133.72818565 154.48769065 -132 161 C-130.9275 160.67 -129.855 160.34 -128.75 160 C-125 159 -125 159 -121 159 C-120.42766554 165.287618 -121.93186508 168.33466363 -125.4375 173.25 C-129.91531008 179.73389838 -129.91531008 179.73389838 -131.11352539 187.37963867 C-131.11344986 188.26032516 -131.11337433 189.14101166 -131.11329651 190.04838562 C-131.10813522 190.99534805 -131.10297394 191.94231049 -131.09765625 192.91796875 C-131.0962413 193.89034988 -131.09482635 194.86273102 -131.09336853 195.86457825 C-131.08776817 198.97225004 -131.07521562 202.07984996 -131.0625 205.1875 C-131.05748505 207.29361875 -131.05292213 209.39973863 -131.04882812 211.50585938 C-131.03779862 216.67060064 -131.02053375 221.83528813 -131 227 C-129.55321435 226.53976179 -128.10824324 226.07381682 -126.6640625 225.60546875 C-125.8592041 225.34660889 -125.0543457 225.08774902 -124.22509766 224.82104492 C-117.03347763 222.16738921 -112.22659105 214.68439481 -107.4921875 208.9765625 C-102.09288467 202.48763544 -96.53770346 196.40515296 -90.5 190.49609375 C-87.71953313 187.71997136 -85.1586951 184.8144714 -82.609375 181.828125 C-80.97413566 179.97062012 -79.26518207 178.23393991 -77.5 176.5 C-75.16876968 174.20984863 -72.99031436 171.86544399 -70.875 169.375 C-63.29842431 160.60122273 -54.86823383 152.4551636 -46 145 C-45.04867188 144.17113281 -44.09734375 143.34226563 -43.1171875 142.48828125 C-12.58228088 116 -12.58228088 116 -4 116 C-4.33 98.18 -4.66 80.36 -5 62 C-16.64733269 57.10052598 -16.64733269 57.10052598 -29 57 C-31.7257878 58.58969609 -34.15489235 60.39776417 -36.6640625 62.30859375 C-41.98393608 66.16060924 -47.16256569 66.08501758 -53.43359375 65.94140625 C-58.48111883 66.05664655 -63.23613997 67.41204666 -68 69 C-69.28667557 64.45195926 -68.67359841 60.39904677 -68 55.8125 C-66.76768339 46.31010463 -66.5866692 38.78044597 -71.16015625 30.10546875 C-72.20621664 27.48301967 -72.447452 25.796575 -72 23 C-70.13671875 21.234375 -70.13671875 21.234375 -67.6875 19.75 C-66.88699219 19.24984375 -66.08648437 18.7496875 -65.26171875 18.234375 C-61.3659064 16.10816308 -58.2767915 15.94639549 -53.89428711 15.91186523 C-45.40067923 15.78108775 -40.34592995 14.728679 -33.37890625 9.52734375 C-28.91626983 6.66216996 -24.72750152 7.57426649 -19.72265625 8.35546875 C-14.18872349 9.15954445 -9.87545192 9.03565874 -5 6 C-3.10057876 3.50447863 -3.10057876 3.50447863 -2 1 C-1.34 0.67 -0.68 0.34 0 0 Z M-5 15 C-9.96298679 26.58030251 -9.17864754 39.25999024 -5 51 C-4.67 51 -4.34 51 -4 51 C-4 39.12 -4 27.24 -4 15 C-4.33 15 -4.66 15 -5 15 Z M-6 147 C-20.71366177 168.4175195 -24.4904129 198.46107432 -20.0690918 223.72875977 C-18.7933549 230.06826614 -17.22997927 235.71133707 -12.625 240.4375 C-10.11436518 242.25779099 -10.11436518 242.25779099 -7.25 241.875 C-4.83260256 241.22480464 -4.83260256 241.22480464 -4 239 C-3.89626032 236.17299593 -3.8531948 233.37043497 -3.85473633 230.54296875 C-3.85137772 229.66806793 -3.8480191 228.79316711 -3.84455872 227.89175415 C-3.83503427 224.99032179 -3.83310497 222.08894703 -3.83203125 219.1875 C-3.82882012 217.17732723 -3.82545616 215.16715469 -3.82194519 213.15698242 C-3.81595047 208.94026141 -3.81410568 204.72356091 -3.81469727 200.50683594 C-3.814799 195.09259233 -3.80113639 189.67847953 -3.78392506 184.26426697 C-3.77283065 180.1122578 -3.77077725 175.96028053 -3.77130699 171.80825806 C-3.7701234 169.81148833 -3.76568057 167.81471786 -3.75797462 165.81796265 C-3.74822459 163.03089103 -3.75103273 160.24410707 -3.75708008 157.45703125 C-3.75146057 156.62579742 -3.74584106 155.7945636 -3.74005127 154.93814087 C-3.57930422 150.49818573 -3.57930422 150.49818573 -6 147 Z M-72 176 C-73.85553939 177.99874194 -75.70976365 179.9986616 -77.5625 182 C-78.11824707 182.60013916 -78.67399414 183.20027832 -79.24658203 183.81860352 C-82.01236525 186.81426267 -84.73972923 189.82556527 -87.375 192.9375 C-91.29280961 197.48254514 -95.60888165 201.63353236 -99.87084961 205.8515625 C-103.56940006 209.52580975 -107.10675605 213.2658267 -110.46875 217.25390625 C-112.73632375 219.83963448 -115.21654465 222.19365758 -117.71484375 224.5546875 C-119.2214964 225.92675739 -119.2214964 225.92675739 -119 228 C-119.66 228 -120.32 228 -121 228 C-122.98211564 230.30065456 -122.98211564 230.30065456 -125 233.1875 C-125.70125 234.15042969 -126.4025 235.11335938 -127.125 236.10546875 C-132.73537041 244.76647806 -132.1863871 254.14050009 -132.18530273 264.11230469 C-132.18748691 266.36152135 -132.20566985 268.61024501 -132.22460938 270.859375 C-132.22754459 272.30989418 -132.22952853 273.76041566 -132.23046875 275.2109375 C-132.23457764 276.51337402 -132.23868652 277.81581055 -132.24291992 279.15771484 C-131.97621576 283.37619737 -131.13901295 286.93995631 -130 291 C-123.34502372 290.57302143 -117.18554636 289.41359037 -110.76171875 287.62109375 C-108.07201595 287.01619595 -105.74527505 286.88498848 -103 287 C-104.70251974 290.51144697 -106.74804178 292.77253914 -109.6875 295.25 C-123.14155973 306.78556492 -130.38835109 320.52896936 -133 338 C-133.12890625 338.7115625 -133.2578125 339.423125 -133.390625 340.15625 C-133.70551339 342.11187262 -133.8784145 344.02244766 -134 346 C-134.06445312 347.01191406 -134.12890625 348.02382813 -134.1953125 349.06640625 C-134.59018479 360.84676286 -132.49074375 372.18431603 -125.953125 382.16796875 C-125 384 -125 384 -125 388 C-128.465 388.99 -128.465 388.99 -132 390 C-132.61615655 399.95395588 -132.61615655 399.95395588 -128.53977966 408.66912842 C-124.5261301 410.77232352 -120.576879 410.39987492 -116.11352539 410.35644531 C-114.60778458 410.35951187 -114.60778458 410.35951187 -113.07162476 410.36264038 C-109.74678427 410.3656524 -106.42243803 410.3471466 -103.09765625 410.328125 C-100.78039167 410.32506577 -98.46312525 410.3231909 -96.14585876 410.32244873 C-91.28100577 410.31784173 -86.41631793 410.30340892 -81.55151367 410.28125 C-75.34477119 410.25310931 -69.1381595 410.2420525 -62.93135929 410.2375679 C-56.98677508 410.2323818 -51.04222303 410.21784902 -45.09765625 410.203125 C-43.97570421 410.20124428 -42.85375217 410.19936356 -41.69780159 410.19742584 C-24.82385654 410.18106867 -24.82385654 410.18106867 -8 409 C-4.98193514 401.87196876 -4.15390929 393.71520006 -5 386 C-5.66 385.34 -6.32 384.68 -7 384 C-7.98057373 384.33209473 -8.96114746 384.66418945 -9.97143555 385.00634766 C-67.49063588 404.45840013 -67.49063588 404.45840013 -77 403 C-84.64495925 397.13612445 -87.51991387 384.4419969 -88.76855469 375.31103516 C-91.61872683 346.85140485 -85.55997614 322.79241989 -74 297 C-73.56848633 296.01628418 -73.13697266 295.03256836 -72.69238281 294.01904297 C-70.02649206 288.00999777 -67.04264885 282.41689136 -63.51171875 276.87890625 C-61.94161684 274.2778695 -60.99734769 272.4455883 -61.015625 269.375 C-62.24922176 266.39870306 -63.86336598 264.66730025 -66.125 262.375 C-79.00603007 248.59291219 -84.69376697 233.67378262 -84.37109375 214.8828125 C-83.33382949 204.02975274 -78.38736732 194.14855769 -73.50390625 184.54541016 C-71.26883425 180.44449008 -71.26883425 180.44449008 -72 176 Z M-5 290 C-12.79164094 305.65892887 -13.39772372 324.36114522 -8 341 C-7.34 341.66 -6.68 342.32 -6 343 C-3.79368862 341.21046916 -3.79368862 341.21046916 -3.75949097 338.82333374 C-3.76393219 337.92176544 -3.76837341 337.02019714 -3.77294922 336.09130859 C-3.77310028 335.07040131 -3.77325134 334.04949402 -3.77340698 332.99765015 C-3.78372955 331.89240997 -3.79405212 330.7871698 -3.8046875 329.6484375 C-3.8075174 328.5192691 -3.81034729 327.39010071 -3.81326294 326.22671509 C-3.82448538 322.60937029 -3.84959378 318.99227034 -3.875 315.375 C-3.88502713 312.9270869 -3.89415344 310.47916993 -3.90234375 308.03125 C-3.92443143 302.02074936 -3.95792926 296.01039217 -4 290 C-4.33 290 -4.66 290 -5 290 Z M48.94921875 321.6171875 C48.11527588 321.97208252 47.28133301 322.32697754 46.42211914 322.69262695 C45.51969482 323.08281006 44.61727051 323.47299316 43.6875 323.875 C42.75993896 324.27485107 41.83237793 324.67470215 40.87670898 325.08666992 C34.05378075 328.05328532 27.28904034 331.13363734 20.5625 334.3125 C19.69391357 334.72032715 18.82532715 335.1281543 17.93041992 335.54833984 C15.59989116 336.66251318 13.30021318 337.82489397 11 339 C9.82695312 339.55558594 8.65390625 340.11117188 7.4453125 340.68359375 C4.70046435 343.28374543 4.57006707 343.88041952 4.23828125 347.484375 C4.23165221 349.23974516 4.25751136 350.99547881 4.3125 352.75 C4.29767578 353.61882812 4.28285156 354.48765625 4.26757812 355.3828125 C4.35030356 361.8645933 6.09878526 365.88700959 10 371 C10.598125 371.825 11.19625 372.65 11.8125 373.5 C12.204375 373.995 12.59625 374.49 13 375 C18.30049187 374.67875807 21.56298948 371.79057859 25 368 C26.61411605 365.4416788 27.81134166 362.77699657 29 360 C29.65336256 358.55640447 30.31986317 357.11867595 31 355.6875 C31.28875 355.05199219 31.5775 354.41648437 31.875 353.76171875 C33.93908968 350.52941165 36.24070091 349.23212268 39.875 348.12109375 C40.90625 347.89550781 41.9375 347.66992188 43 347.4375 C48.25028541 346.35007506 48.25028541 346.35007506 53 344 C55.65186079 336.17701067 55.19361081 328.16392242 55 320 C52.58973907 320 51.16868478 320.67164781 48.94921875 321.6171875 Z " fill="#060606" transform="translate(365,11)"/>           
<path d="M0 0 C-0.56807468 3.78507909 -1.61240912 6.34381454 -3.6796875 9.55078125 C-17.94496533 32.57998647 -27.24128372 58.81120982 -35.875 84.36328125 C-36.37303635 85.83594704 -36.37303635 85.83594704 -36.88113403 87.33836365 C-38.52357189 92.20686392 -40.149333 97.08009182 -41.74951172 101.96264648 C-44.78711128 111.14305025 -47.79530002 119.78255644 -53 128 C-56.84943247 127.30902528 -59.26253334 126.40516466 -62.5 124.1875 C-81.40049517 111.81580491 -101.47043204 100.98920722 -123 94 C-122.828125 91.67578125 -122.828125 91.67578125 -122 89 C-119.734375 87.48046875 -119.734375 87.48046875 -116.75 86.1875 C-95.6880964 76.38838113 -77.28313904 61.11456956 -59 47 C-58.17193848 46.36175293 -57.34387695 45.72350586 -56.49072266 45.06591797 C-47.55507494 38.17239746 -38.65155148 31.24927396 -30 24 C-29.46455566 23.55479004 -28.92911133 23.10958008 -28.37744141 22.65087891 C-21.17910326 16.65327792 -14.26484456 10.55444485 -7.90649414 3.65698242 C-4.42760154 0 -4.42760154 0 0 0 Z " fill="#060606" transform="translate(176,214)"/>
<path d="M0 0 C0.66 0.33 1.32 0.66 2 1 C1.0479279 2.00596297 0.08812654 3.00461563 -0.875 4 C-1.40867188 4.556875 -1.94234375 5.11375 -2.4921875 5.6875 C-4 7 -4 7 -6 7 C-6.23460937 7.56203125 -6.46921875 8.1240625 -6.7109375 8.703125 C-8.30663 11.54635891 -10.28924543 13.48098127 -12.625 15.75 C-13.44226563 16.54921875 -14.25953125 17.3484375 -15.1015625 18.171875 C-15.72804687 18.77515625 -16.35453125 19.3784375 -17 20 C-17.66 19.67 -18.32 19.34 -19 19 C-6.51480638 5.18223235 -6.51480638 5.18223235 0 0 Z " fill="#222222" transform="translate(211,183)"/>
</svg>
